<mxfile host="app.diagrams.net" modified="2022-08-24T09:10:44.676Z" agent="5.0 (Macintosh; Intel Mac OS X 10_15_7) AppleWebKit/537.36 (KHTML, like Gecko) Chrome/104.0.0.0 Safari/537.36" etag="buc6aKmtTYEbKDHhcIBT" version="20.2.6" type="github">
  <diagram id="GCDyyrx49d4i9OqpRdfd" name="第 1 页">
    <mxGraphModel dx="1426" dy="623" grid="1" gridSize="10" guides="1" tooltips="1" connect="1" arrows="1" fold="1" page="1" pageScale="1" pageWidth="827" pageHeight="1169" math="0" shadow="0">
      <root>
        <mxCell id="0" />
        <mxCell id="1" parent="0" />
        <mxCell id="gO5u5lC5R_BYET8oJLY0-1" value="&lt;font style=&quot;font-size: 24px;&quot;&gt;用户&lt;/font&gt;" style="rounded=0;whiteSpace=wrap;html=1;strokeColor=#97D077;" vertex="1" parent="1">
          <mxGeometry x="350" y="250" width="120" height="50" as="geometry" />
        </mxCell>
        <mxCell id="gO5u5lC5R_BYET8oJLY0-3" value="最后登录时间" style="ellipse;whiteSpace=wrap;html=1;fontSize=24;strokeColor=#97D077;" vertex="1" parent="1">
          <mxGeometry x="210" y="87.5" width="120" height="72.5" as="geometry" />
        </mxCell>
        <mxCell id="gO5u5lC5R_BYET8oJLY0-4" value="邀请码" style="ellipse;whiteSpace=wrap;html=1;fontSize=24;strokeColor=#97D077;" vertex="1" parent="1">
          <mxGeometry x="350" y="410" width="120" height="60" as="geometry" />
        </mxCell>
        <mxCell id="gO5u5lC5R_BYET8oJLY0-5" value="分佣比例" style="ellipse;whiteSpace=wrap;html=1;fontSize=24;strokeColor=#97D077;" vertex="1" parent="1">
          <mxGeometry x="210" y="380" width="120" height="60" as="geometry" />
        </mxCell>
        <mxCell id="gO5u5lC5R_BYET8oJLY0-6" value="上级Id" style="ellipse;whiteSpace=wrap;html=1;fontSize=24;strokeColor=#97D077;" vertex="1" parent="1">
          <mxGeometry x="100" y="230" width="120" height="60" as="geometry" />
        </mxCell>
        <mxCell id="gO5u5lC5R_BYET8oJLY0-7" value="昵称" style="ellipse;whiteSpace=wrap;html=1;fontSize=24;strokeColor=#97D077;" vertex="1" parent="1">
          <mxGeometry x="120" y="160" width="120" height="60" as="geometry" />
        </mxCell>
        <mxCell id="gO5u5lC5R_BYET8oJLY0-8" value="用户名" style="ellipse;whiteSpace=wrap;html=1;fontSize=24;strokeColor=#97D077;" vertex="1" parent="1">
          <mxGeometry x="350" y="70" width="120" height="60" as="geometry" />
        </mxCell>
        <mxCell id="gO5u5lC5R_BYET8oJLY0-9" value="密码" style="ellipse;whiteSpace=wrap;html=1;fontSize=24;strokeColor=#97D077;" vertex="1" parent="1">
          <mxGeometry x="490" y="90" width="120" height="60" as="geometry" />
        </mxCell>
        <mxCell id="gO5u5lC5R_BYET8oJLY0-10" value="类型" style="ellipse;whiteSpace=wrap;html=1;fontSize=24;strokeColor=#97D077;" vertex="1" parent="1">
          <mxGeometry x="590" y="150" width="120" height="60" as="geometry" />
        </mxCell>
        <mxCell id="gO5u5lC5R_BYET8oJLY0-11" value="邮箱" style="ellipse;whiteSpace=wrap;html=1;fontSize=24;strokeColor=#97D077;" vertex="1" parent="1">
          <mxGeometry x="480" y="370" width="120" height="60" as="geometry" />
        </mxCell>
        <mxCell id="gO5u5lC5R_BYET8oJLY0-13" value="电话" style="ellipse;whiteSpace=wrap;html=1;fontSize=24;strokeColor=#97D077;" vertex="1" parent="1">
          <mxGeometry x="140" y="310" width="120" height="60" as="geometry" />
        </mxCell>
        <mxCell id="gO5u5lC5R_BYET8oJLY0-14" value="头像" style="ellipse;whiteSpace=wrap;html=1;fontSize=24;strokeColor=#97D077;" vertex="1" parent="1">
          <mxGeometry x="570" y="310" width="120" height="60" as="geometry" />
        </mxCell>
        <mxCell id="gO5u5lC5R_BYET8oJLY0-15" value="等级" style="ellipse;whiteSpace=wrap;html=1;fontSize=24;strokeColor=#97D077;" vertex="1" parent="1">
          <mxGeometry x="610" y="230" width="120" height="60" as="geometry" />
        </mxCell>
        <mxCell id="gO5u5lC5R_BYET8oJLY0-16" value="" style="endArrow=classic;html=1;rounded=0;fontSize=24;strokeColor=#3399FF;entryX=0;entryY=0;entryDx=0;entryDy=0;exitX=0.558;exitY=1.04;exitDx=0;exitDy=0;exitPerimeter=0;" edge="1" parent="1" source="gO5u5lC5R_BYET8oJLY0-1" target="gO5u5lC5R_BYET8oJLY0-11">
          <mxGeometry width="50" height="50" relative="1" as="geometry">
            <mxPoint x="389" y="400" as="sourcePoint" />
            <mxPoint x="439" y="350" as="targetPoint" />
          </mxGeometry>
        </mxCell>
        <mxCell id="gO5u5lC5R_BYET8oJLY0-18" value="" style="endArrow=classic;html=1;rounded=0;fontSize=24;strokeColor=#3399FF;entryX=0.592;entryY=0;entryDx=0;entryDy=0;exitX=0.5;exitY=1;exitDx=0;exitDy=0;entryPerimeter=0;" edge="1" parent="1" source="gO5u5lC5R_BYET8oJLY0-1" target="gO5u5lC5R_BYET8oJLY0-4">
          <mxGeometry width="50" height="50" relative="1" as="geometry">
            <mxPoint x="426.96000000000004" y="312" as="sourcePoint" />
            <mxPoint x="507.57359312880703" y="388.7867965644035" as="targetPoint" />
          </mxGeometry>
        </mxCell>
        <mxCell id="gO5u5lC5R_BYET8oJLY0-19" value="" style="endArrow=classic;html=1;rounded=0;fontSize=24;strokeColor=#3399FF;entryX=0.658;entryY=-0.033;entryDx=0;entryDy=0;exitX=0.325;exitY=1.04;exitDx=0;exitDy=0;exitPerimeter=0;entryPerimeter=0;" edge="1" parent="1" source="gO5u5lC5R_BYET8oJLY0-1" target="gO5u5lC5R_BYET8oJLY0-5">
          <mxGeometry width="50" height="50" relative="1" as="geometry">
            <mxPoint x="436.96000000000004" y="322" as="sourcePoint" />
            <mxPoint x="517.573593128807" y="398.7867965644035" as="targetPoint" />
          </mxGeometry>
        </mxCell>
        <mxCell id="gO5u5lC5R_BYET8oJLY0-20" value="" style="endArrow=classic;html=1;rounded=0;fontSize=24;strokeColor=#3399FF;entryX=0.975;entryY=0.25;entryDx=0;entryDy=0;exitX=0;exitY=0.5;exitDx=0;exitDy=0;entryPerimeter=0;" edge="1" parent="1" source="gO5u5lC5R_BYET8oJLY0-1" target="gO5u5lC5R_BYET8oJLY0-13">
          <mxGeometry width="50" height="50" relative="1" as="geometry">
            <mxPoint x="446.96000000000004" y="332" as="sourcePoint" />
            <mxPoint x="527.573593128807" y="408.7867965644035" as="targetPoint" />
          </mxGeometry>
        </mxCell>
        <mxCell id="gO5u5lC5R_BYET8oJLY0-21" value="" style="endArrow=classic;html=1;rounded=0;fontSize=24;strokeColor=#3399FF;entryX=0.033;entryY=0.25;entryDx=0;entryDy=0;exitX=1;exitY=0.5;exitDx=0;exitDy=0;entryPerimeter=0;" edge="1" parent="1" source="gO5u5lC5R_BYET8oJLY0-1" target="gO5u5lC5R_BYET8oJLY0-14">
          <mxGeometry width="50" height="50" relative="1" as="geometry">
            <mxPoint x="456.96000000000004" y="342" as="sourcePoint" />
            <mxPoint x="537.573593128807" y="418.7867965644035" as="targetPoint" />
          </mxGeometry>
        </mxCell>
        <mxCell id="gO5u5lC5R_BYET8oJLY0-22" value="" style="endArrow=classic;html=1;rounded=0;fontSize=24;strokeColor=#3399FF;entryX=-0.008;entryY=0.617;entryDx=0;entryDy=0;exitX=1;exitY=0.5;exitDx=0;exitDy=0;entryPerimeter=0;" edge="1" parent="1" source="gO5u5lC5R_BYET8oJLY0-1" target="gO5u5lC5R_BYET8oJLY0-15">
          <mxGeometry width="50" height="50" relative="1" as="geometry">
            <mxPoint x="466.96000000000004" y="352" as="sourcePoint" />
            <mxPoint x="547.573593128807" y="428.7867965644035" as="targetPoint" />
          </mxGeometry>
        </mxCell>
        <mxCell id="gO5u5lC5R_BYET8oJLY0-23" value="" style="endArrow=classic;html=1;rounded=0;fontSize=24;strokeColor=#3399FF;entryX=0.05;entryY=0.75;entryDx=0;entryDy=0;entryPerimeter=0;" edge="1" parent="1" target="gO5u5lC5R_BYET8oJLY0-10">
          <mxGeometry width="50" height="50" relative="1" as="geometry">
            <mxPoint x="470" y="270" as="sourcePoint" />
            <mxPoint x="557.573593128807" y="438.7867965644035" as="targetPoint" />
          </mxGeometry>
        </mxCell>
        <mxCell id="gO5u5lC5R_BYET8oJLY0-24" value="" style="endArrow=classic;html=1;rounded=0;fontSize=24;strokeColor=#3399FF;entryX=0.4;entryY=0.983;entryDx=0;entryDy=0;exitX=0.75;exitY=0;exitDx=0;exitDy=0;entryPerimeter=0;" edge="1" parent="1" source="gO5u5lC5R_BYET8oJLY0-1" target="gO5u5lC5R_BYET8oJLY0-9">
          <mxGeometry width="50" height="50" relative="1" as="geometry">
            <mxPoint x="486.96000000000004" y="372" as="sourcePoint" />
            <mxPoint x="567.573593128807" y="448.7867965644035" as="targetPoint" />
          </mxGeometry>
        </mxCell>
        <mxCell id="gO5u5lC5R_BYET8oJLY0-25" value="" style="endArrow=classic;html=1;rounded=0;fontSize=24;strokeColor=#3399FF;entryX=0.5;entryY=1;entryDx=0;entryDy=0;exitX=0.5;exitY=0;exitDx=0;exitDy=0;" edge="1" parent="1" source="gO5u5lC5R_BYET8oJLY0-1" target="gO5u5lC5R_BYET8oJLY0-8">
          <mxGeometry width="50" height="50" relative="1" as="geometry">
            <mxPoint x="496.96000000000004" y="382" as="sourcePoint" />
            <mxPoint x="577.573593128807" y="458.7867965644035" as="targetPoint" />
          </mxGeometry>
        </mxCell>
        <mxCell id="gO5u5lC5R_BYET8oJLY0-26" value="" style="endArrow=classic;html=1;rounded=0;fontSize=24;strokeColor=#3399FF;exitX=0.25;exitY=0;exitDx=0;exitDy=0;" edge="1" parent="1" source="gO5u5lC5R_BYET8oJLY0-1" target="gO5u5lC5R_BYET8oJLY0-3">
          <mxGeometry width="50" height="50" relative="1" as="geometry">
            <mxPoint x="506.96000000000004" y="392" as="sourcePoint" />
            <mxPoint x="587.573593128807" y="468.7867965644035" as="targetPoint" />
          </mxGeometry>
        </mxCell>
        <mxCell id="gO5u5lC5R_BYET8oJLY0-27" value="" style="endArrow=classic;html=1;rounded=0;fontSize=24;strokeColor=#3399FF;entryX=0.983;entryY=0.717;entryDx=0;entryDy=0;exitX=0;exitY=0;exitDx=0;exitDy=0;entryPerimeter=0;" edge="1" parent="1" source="gO5u5lC5R_BYET8oJLY0-1" target="gO5u5lC5R_BYET8oJLY0-7">
          <mxGeometry width="50" height="50" relative="1" as="geometry">
            <mxPoint x="516.96" y="402" as="sourcePoint" />
            <mxPoint x="597.573593128807" y="478.7867965644035" as="targetPoint" />
          </mxGeometry>
        </mxCell>
        <mxCell id="gO5u5lC5R_BYET8oJLY0-28" value="" style="endArrow=classic;html=1;rounded=0;fontSize=24;strokeColor=#3399FF;entryX=1;entryY=0.5;entryDx=0;entryDy=0;exitX=0;exitY=0.25;exitDx=0;exitDy=0;" edge="1" parent="1" source="gO5u5lC5R_BYET8oJLY0-1" target="gO5u5lC5R_BYET8oJLY0-6">
          <mxGeometry width="50" height="50" relative="1" as="geometry">
            <mxPoint x="526.96" y="412" as="sourcePoint" />
            <mxPoint x="607.573593128807" y="488.7867965644035" as="targetPoint" />
          </mxGeometry>
        </mxCell>
      </root>
    </mxGraphModel>
  </diagram>
</mxfile>
